# xmcd
#
# Track frame offsets: 
#        187
#        26725
#        44757
#        63957
#        82887
#        103580
#        126345
#        147630
#        168305
#        187357
#        206520
#        226712
#        248902
#        274987
#        298057
#        321367
#
# Disc length: 4587 seconds
#
# Revision: 3
# Processed by: cddbd v1.5.2PL0 Copyright (c) Steve Scherf et al.
# Submitted via: ExactAudioCopyFreeDBPlugin 1.0
#
DISCID=fa11e910
DTITLE=Aretha Franklin - Greatest Hits (1980-1994)
DYEAR=1996
DGENRE=Soul
TTITLE0=Freeway of Love
TTITLE1=I Knew You Where Waiting (For Me)
TTITLE2=Jump to It
TTITLE3=Willing to Forgive
TTITLE4=Doctor's Orders (duet with Luther Vandross)
TTITLE5=United Together
TTITLE6=Who's Zoomin' Who
TTITLE7=A Deeper Love
TTITLE8=Honey
TTITLE9=Get it Right
TTITLE10=Another Night
TTITLE11=Ever Changing Times
TTITLE12=Jimmy Lee
TTITLE13=You Make Me Feel (Like a Natural Woman)
TTITLE14=I Dreamed a Dream
TTITLE15=Jumpin' Jack Flash (ft Keith Richard and Ron Wood)
EXTD=ID3G:  42
EXTT0=
EXTT1=
EXTT2=
EXTT3=
EXTT4=
EXTT5=
EXTT6=
EXTT7=
EXTT8=
EXTT9=
EXTT10=
EXTT11=
EXTT12=
EXTT13=
EXTT14=
EXTT15=
PLAYORDER=
